<svg width="17" height="22" viewBox="0 0 17 22" fill="none" xmlns="http://www.w3.org/2000/svg">
<path d="M3.01668 0.508282C2.46856 0.508282 1.9429 0.726019 1.55532 1.11359C1.16775 1.50117 0.950012 2.02683 0.950012 2.57495V19.2833C0.95001 19.5543 1.00353 19.8226 1.10749 20.0729C1.21145 20.3232 1.36381 20.5505 1.55583 20.7417C1.74784 20.9329 1.97574 21.0844 2.22643 21.1873C2.47712 21.2903 2.74567 21.3427 3.01668 21.3416H16.5583V0.508282H3.01668ZM15.5167 20.5083H3.27501C2.98029 20.5083 2.69752 20.3918 2.48834 20.1842C2.27916 19.9766 2.16054 19.6947 2.15835 19.3999V18.7333C2.15835 18.4371 2.27599 18.1531 2.48541 17.9437C2.69483 17.7343 2.97885 17.6166 3.27501 17.6166H15.55L15.5167 20.5083Z" fill="#25315B"/>
</svg>
