<svg width="20" height="19" viewBox="0 0 20 19" fill="none" xmlns="http://www.w3.org/2000/svg">
<path d="M9.20355 19C10.3627 19 11.3029 18.1047 11.3029 17H7.10424C7.10424 18.1047 8.04445 19 9.20355 19ZM16.2721 14.3216C15.638 13.6728 14.4517 12.6969 14.4517 9.5C14.4517 7.07188 12.6638 5.12812 10.253 4.65125V4C10.253 3.44781 9.7831 3 9.20355 3C8.624 3 8.15406 3.44781 8.15406 4V4.65125C5.74331 5.12812 3.95543 7.07188 3.95543 9.5C3.95543 12.6969 2.76909 13.6728 2.13506 14.3216C1.93815 14.5231 1.85086 14.7641 1.8525 15C1.85611 15.5125 2.27847 16 2.90593 16H15.5012C16.1286 16 16.5513 15.5125 16.5546 15C16.5562 14.7641 16.469 14.5228 16.2721 14.3216Z" fill="#25315B"/>
<path d="M14.4543 8.75C16.5735 8.75 18.3548 7.10523 18.3548 5C18.3548 2.89477 16.5735 1.25 14.4543 1.25C12.3352 1.25 10.5539 2.89477 10.5539 5C10.5539 7.10523 12.3352 8.75 14.4543 8.75Z" fill="#6CFFD5" stroke="#F7F8FC" stroke-width="1.5"/>
</svg>
