<svg width="20" height="20" viewBox="0 0 20 20" fill="none" xmlns="http://www.w3.org/2000/svg">
<path d="M13.894 1.3804C14.5064 0.769035 15.3323 0.419268 16.1975 0.404795C17.0628 0.390322 17.8998 0.712273 18.5324 1.30282C19.1649 1.89336 19.5435 2.70638 19.5885 3.57057C19.6334 4.43477 19.3411 5.28266 18.7732 5.9356L18.6172 6.1036L7.08999 17.6308C6.84428 17.8762 6.54828 18.0653 6.22239 18.1852L6.02439 18.2488L1.15839 19.576C1.06413 19.602 0.964957 19.6045 0.869491 19.5834C0.774025 19.5623 0.685164 19.5182 0.610639 19.4549C0.536114 19.3916 0.478184 19.3111 0.44189 19.2203C0.405596 19.1295 0.392037 19.0312 0.402393 18.934L0.421593 18.838L1.74879 13.9732C1.83999 13.6372 2.00319 13.3252 2.22639 13.0612L2.36679 12.9076L13.894 1.3804ZM12.862 4.1104L3.21519 13.756C3.10497 13.8664 3.01734 13.9973 2.95719 14.1412L2.90679 14.2888L1.85439 18.1408L5.70879 17.0908C5.80919 17.0634 5.9056 17.0231 5.99559 16.9708L6.12399 16.8844L6.24159 16.7824L15.8872 7.1344L12.862 4.1104ZM17.7688 2.2288C17.3914 1.85116 16.8865 1.62824 16.3532 1.60381C15.8199 1.57939 15.2967 1.75523 14.8864 2.0968L14.7424 2.2288L13.7104 3.2608L16.7344 6.2872L17.7688 5.2552C18.1464 4.87783 18.3694 4.37292 18.3938 3.8396C18.4182 3.30629 18.2424 2.78311 17.9008 2.3728L17.7688 2.2288Z" fill="black"/>
</svg>
