<svg width="20" height="19" viewBox="0 0 20 19" fill="none" xmlns="http://www.w3.org/2000/svg">
<path d="M9.20337 19C10.3625 19 11.3027 18.1047 11.3027 17H7.10405C7.10405 18.1047 8.04427 19 9.20337 19ZM16.2719 14.3216C15.6378 13.6728 14.4515 12.6969 14.4515 9.5C14.4515 7.07188 12.6636 5.12812 10.2529 4.65125V4C10.2529 3.44781 9.78292 3 9.20337 3C8.62382 3 8.15388 3.44781 8.15388 4V4.65125C5.74312 5.12812 3.95524 7.07188 3.95524 9.5C3.95524 12.6969 2.7689 13.6728 2.13487 14.3216C1.93797 14.5231 1.85068 14.7641 1.85232 15C1.85593 15.5125 2.27828 16 2.90575 16H15.501C16.1285 16 16.5511 15.5125 16.5544 15C16.5561 14.7641 16.4688 14.5228 16.2719 14.3216Z" fill="#DDE2FF"/>
<path d="M14.4542 8.75C16.5733 8.75 18.3546 7.10523 18.3546 5C18.3546 2.89477 16.5733 1.25 14.4542 1.25C12.335 1.25 10.5537 2.89477 10.5537 5C10.5537 7.10523 12.335 8.75 14.4542 8.75Z" fill="#DDE2FF" stroke="#384363" stroke-width="1.5"/>
</svg>
