<svg width="134" height="174" viewBox="0 0 134 174" fill="none" xmlns="http://www.w3.org/2000/svg">
<path d="M98.4547 172.252C117.47 172.252 132.884 156.857 132.884 137.868C132.884 118.878 117.47 103.484 98.4547 103.484C79.4397 103.484 64.025 118.878 64.025 137.868C64.025 156.857 79.4397 172.252 98.4547 172.252Z" stroke="#6CFFD5" stroke-width="2" stroke-linecap="round" stroke-linejoin="round" stroke-dasharray="10 10"/>
<path d="M110.957 33.6462H31.6477V143.888H110.957V33.6462Z" fill="#3175D6"/>
<path d="M3.58958 21.8032L18.1653 36.3648L52.52 2.05056C51.2386 0.777362 49.5046 0.0626221 47.6971 0.0626221C45.8896 0.0626221 44.1556 0.777362 42.8743 2.05056L17.8062 27.0905L1.19424 10.5274C0.459141 12.437 0.294167 14.5184 0.719301 16.5197C1.14444 18.5209 2.14144 20.3562 3.58958 21.8032Z" fill="#6CFFD5"/>
<path d="M16.4528 29.7556L41.5209 4.71564C42.6872 3.55212 44.2354 2.84898 45.8801 2.73587C47.5248 2.62277 49.1549 3.10733 50.4699 4.1002L52.5223 2.05056C51.241 0.777362 49.507 0.0626221 47.6995 0.0626221C45.892 0.0626221 44.158 0.777362 42.8767 2.05056L17.8086 27.0905L1.19654 10.5274C0.790958 11.5857 0.559333 12.7026 0.51062 13.8347L16.4528 29.7556Z" fill="#76E5C0"/>
<g style="mix-blend-mode:multiply" opacity="0.55">
<path d="M98.3208 33.6462V128.636H31.6477V143.888H110.957V33.6462H98.3208Z" fill="#3175D6"/>
</g>
<path d="M102.201 49.4333H40.4093V135.326H102.201V49.4333Z" fill="#BDE0FC"/>
<path d="M48.4849 63.3473H94.8485" stroke="#14407D" stroke-width="3" stroke-miterlimit="10"/>
<path d="M48.4849 75.2278H94.8485" stroke="#14407D" stroke-width="3" stroke-miterlimit="10"/>
<path d="M48.4849 87.1083H94.8485" stroke="#14407D" stroke-width="3" stroke-miterlimit="10"/>
<path d="M48.4849 98.9888H94.8485" stroke="#14407D" stroke-width="3" stroke-miterlimit="10"/>
<path d="M48.4849 110.869H94.8485" stroke="#14407D" stroke-width="3" stroke-miterlimit="10"/>
<path d="M48.4849 122.75H94.8485" stroke="#14407D" stroke-width="3" stroke-miterlimit="10"/>
<g style="mix-blend-mode:screen" opacity="0.55">
<path d="M64.025 33.6462H31.6477V108.836H64.025V33.6462Z" fill="#3175D6"/>
</g>
<g style="mix-blend-mode:multiply" opacity="0.55">
<path d="M90.5507 33.6462H56.5229V42.7438H90.5507V33.6462Z" fill="#3175D6"/>
</g>
<path d="M85.9047 28.2946H56.6997V39.5329H85.9047V28.2946Z" fill="#6CFFD5" stroke="#14407D" stroke-width="3" stroke-miterlimit="10"/>
</svg>
