<svg width="236" height="191" viewBox="0 0 236 191" fill="none" xmlns="http://www.w3.org/2000/svg">
<path d="M189.169 136.255C210.089 136.255 227.048 119.296 227.048 98.3763C227.048 77.4562 210.089 60.4971 189.169 60.4971C168.249 60.4971 151.29 77.4562 151.29 98.3763C151.29 119.296 168.249 136.255 189.169 136.255Z" stroke="#6CFFD5" stroke-width="1.5" stroke-miterlimit="10" stroke-dasharray="8 8"/>
<path d="M64.5078 82.8286C85.4279 82.8286 102.387 65.8695 102.387 44.9494C102.387 24.0294 85.4279 7.0703 64.5078 7.0703C43.5877 7.0703 26.6287 24.0294 26.6287 44.9494C26.6287 65.8695 43.5877 82.8286 64.5078 82.8286Z" fill="#BDE0FC"/>
<g style="mix-blend-mode:multiply" opacity="0.65">
<path d="M81.9233 78.5947C90.3242 74.2327 96.7948 66.8926 100.069 58.0109H81.9233V78.5947Z" fill="#BDE0FC"/>
</g>
<g style="mix-blend-mode:screen" opacity="0.55">
<path d="M31.3007 50.6573C31.3002 43.1587 33.525 35.8286 37.6935 29.5955C41.862 23.3623 47.7866 18.5065 54.7169 15.643C61.6472 12.7795 69.2715 12.0372 76.624 13.5101C83.9765 14.983 90.7265 18.6048 96.019 23.9168C93.0876 19.5155 89.2672 15.7767 84.8036 12.941C80.3401 10.1053 75.3322 8.23551 70.1024 7.45201C64.8726 6.66851 59.5367 6.98864 54.4381 8.3918C49.3395 9.79495 44.5911 12.25 40.4986 15.5991C36.4061 18.9481 33.0601 23.1169 30.6759 27.8371C28.2918 32.5573 26.9223 37.7244 26.6556 43.0058C26.3889 48.2873 27.231 53.566 29.1275 58.5024C31.0241 63.4388 33.9332 67.9234 37.6675 71.6676C33.5074 65.4511 31.2912 58.1373 31.3007 50.6573Z" fill="#BDE0FC"/>
</g>
<path d="M124.152 61.0637H84.5757V88.7656H124.152V61.0637Z" fill="#14407D"/>
<g style="mix-blend-mode:multiply" opacity="0.65">
<path d="M33.3775 39.2289C31.1813 39.2277 28.9992 39.5803 26.9152 40.273C26.7247 41.8246 26.629 43.3863 26.6287 44.9494C26.6249 51.3728 28.2562 57.6914 31.3688 63.3103C34.4815 68.9291 38.9731 73.6631 44.4206 77.0666C48.1654 74.6779 51.0345 71.139 52.5971 66.9811C54.1598 62.8233 54.3318 58.2707 53.0874 54.0068C51.8429 49.7429 49.2491 45.9976 45.6953 43.333C42.1415 40.6684 37.8193 39.2284 33.3775 39.2289Z" fill="#BDE0FC"/>
</g>
<g style="mix-blend-mode:multiply" opacity="0.25">
<path d="M107.445 86.343L124.152 67.8698V61.0605L104.364 80.8485L84.5757 61.0605L107.445 86.343Z" fill="#14407D"/>
</g>
<path d="M158.615 0.286488H81.1597V33.0786H158.615V0.286488Z" fill="#14407D"/>
<path d="M212.35 11.3106C215.473 11.3106 218.004 8.77934 218.004 5.65689C218.004 2.53444 215.473 0.0031929 212.35 0.0031929C209.228 0.0031929 206.697 2.53444 206.697 5.65689C206.697 8.77934 209.228 11.3106 212.35 11.3106Z" fill="#6CFFD5"/>
<path d="M190.299 11.3106C193.422 11.3106 195.953 8.77934 195.953 5.65689C195.953 2.53444 193.422 0.0031929 190.299 0.0031929C187.177 0.0031929 184.646 2.53444 184.646 5.65689C184.646 8.77934 187.177 11.3106 190.299 11.3106Z" fill="#3175D6"/>
<g style="mix-blend-mode:multiply" opacity="0.65">
<path d="M76.5125 9.01212V37.3188H101.617C100.275 30.8166 97.2498 24.7804 92.8445 19.8132C88.4392 14.8459 82.8077 11.1216 76.5125 9.01212Z" fill="#BDE0FC"/>
</g>
<path d="M164.097 46.8372C164.08 47.5115 164.198 48.1824 164.444 48.8103C164.691 49.4383 165.06 50.0105 165.531 50.4935C166.002 50.9764 166.565 51.3602 167.186 51.6222C167.808 51.8842 168.476 52.0192 169.15 52.0192C169.825 52.0192 170.492 51.8842 171.114 51.6222C171.736 51.3602 172.298 50.9764 172.769 50.4935C173.24 50.0105 173.61 49.4383 173.856 48.8103C174.103 48.1824 174.221 47.5115 174.204 46.8372" stroke="#BDE0FC" stroke-width="1.5" stroke-miterlimit="10"/>
<path d="M164.097 46.8372C164.063 45.5188 163.516 44.2656 162.572 43.3449C161.628 42.4241 160.362 41.9088 159.043 41.9088C157.724 41.9088 156.458 42.4241 155.513 43.3449C154.569 44.2656 154.022 45.5188 153.989 46.8372" stroke="#BDE0FC" stroke-width="1.5" stroke-miterlimit="10"/>
<path d="M143.882 46.8372C143.865 47.5115 143.983 48.1824 144.23 48.8103C144.476 49.4383 144.846 50.0105 145.317 50.4935C145.788 50.9764 146.35 51.3602 146.972 51.6222C147.594 51.8842 148.261 52.0192 148.936 52.0192C149.61 52.0192 150.278 51.8842 150.9 51.6222C151.521 51.3602 152.084 50.9764 152.555 50.4935C153.026 50.0105 153.395 49.4383 153.642 48.8103C153.888 48.1824 154.006 47.5115 153.989 46.8372" stroke="#BDE0FC" stroke-width="1.5" stroke-miterlimit="10"/>
<path d="M143.882 46.8372C143.849 45.5188 143.302 44.2656 142.358 43.3449C141.414 42.4241 140.147 41.9088 138.828 41.9088C137.51 41.9088 136.243 42.4241 135.299 43.3449C134.355 44.2656 133.808 45.5188 133.775 46.8372" stroke="#BDE0FC" stroke-width="1.5" stroke-miterlimit="10"/>
<path d="M26.657 73.7846C36.1808 73.7846 43.9014 66.0641 43.9014 56.5402C43.9014 47.0164 36.1808 39.2958 26.657 39.2958C17.1332 39.2958 9.4126 47.0164 9.4126 56.5402C9.4126 66.0641 17.1332 73.7846 26.657 73.7846Z" fill="#14407D"/>
<g style="mix-blend-mode:multiply" opacity="0.25">
<path d="M26.6562 39.2958C25.2066 39.2948 23.7627 39.4767 22.3586 39.837C26.0639 40.7906 29.3469 42.9492 31.691 45.973C34.0351 48.9968 35.3072 52.7142 35.3072 56.5402C35.3072 60.3662 34.0351 64.0836 31.691 67.1075C29.3469 70.1313 26.0639 72.2898 22.3586 73.2435C24.7283 73.8516 27.2003 73.9485 29.6103 73.5277C32.0203 73.107 34.3133 72.1783 36.3368 70.8033C38.3603 69.4283 40.0681 67.6385 41.3467 65.5528C42.6253 63.467 43.4455 61.1331 43.7527 58.706C44.06 56.2789 43.8473 53.8142 43.1288 51.4756C42.4102 49.137 41.2023 46.9781 39.5853 45.1422C37.9683 43.3064 35.9791 41.8356 33.75 40.8276C31.5208 39.8196 29.1027 39.2974 26.6562 39.2958Z" fill="#14407D"/>
</g>
<g style="mix-blend-mode:screen" opacity="0.55">
<path d="M13.5512 56.8617C13.5512 52.4164 15.2682 48.1429 18.3438 44.9333C21.4194 41.7237 25.6158 39.826 30.057 39.6364C27.6951 39.1599 25.2595 39.1836 22.9073 39.7061C20.555 40.2286 18.3384 41.2382 16.4003 42.6699C14.4623 44.1016 12.8457 45.9235 11.655 48.0183C10.4642 50.1131 9.72566 52.4341 9.48694 54.8318C9.24822 57.2295 9.51463 59.6506 10.269 61.939C11.0234 64.2274 12.2489 66.3323 13.8667 68.118C15.4844 69.9038 17.4585 71.3306 19.6615 72.3066C21.8645 73.2826 24.2476 73.7861 26.6572 73.7846C26.9055 73.7846 27.1506 73.7846 27.3957 73.7846C23.488 72.9982 19.9733 70.8824 17.4493 67.7972C14.9253 64.712 13.5478 60.8478 13.5512 56.8617Z" fill="#14407D"/>
</g>
<path d="M26.6562 44.6725V56.5401L40.0488 61.0605" stroke="white" stroke-width="1.5" stroke-miterlimit="10"/>
<g style="mix-blend-mode:multiply" opacity="0.5">
<path d="M149.065 0.286488V29.2553H81.1597V33.0754H158.615V0.286488H149.065Z" fill="#14407D"/>
</g>
<g style="mix-blend-mode:screen" opacity="0.35">
<path d="M115.031 0.286488H81.1597V33.1804H115.031V0.286488Z" fill="#14407D"/>
</g>
<path d="M86.5811 7.35359H153.193" stroke="#6CFFD5" stroke-miterlimit="10"/>
<path d="M86.5811 13.5708H153.193" stroke="#6CFFD5" stroke-miterlimit="10"/>
<path d="M86.5811 19.7911H153.193" stroke="#6CFFD5" stroke-miterlimit="10"/>
<path d="M86.5811 26.0083H153.193" stroke="#6CFFD5" stroke-miterlimit="10"/>
<path d="M84.5757 61.0605L104.364 80.8485L124.152 61.0605" stroke="white" stroke-miterlimit="10"/>
<g style="mix-blend-mode:screen" opacity="0.25">
<path d="M84.5757 88.7655V64.4221L106.665 88.7655H84.5757Z" fill="#14407D"/>
</g>
<g style="mix-blend-mode:screen" opacity="0.25">
<path d="M88.2903 61.0605L104.752 77.5218L111.236 71.0373L101.263 61.0637L88.2903 61.0605Z" fill="#14407D"/>
</g>
<path d="M177.473 113.93H172.173L164.367 106.128L156.564 113.93H75.1398C70.6417 113.931 66.3281 115.718 63.1474 118.899C59.9668 122.08 58.1796 126.393 58.1787 130.891C58.1787 135.39 59.9657 139.704 63.1465 142.885C66.3273 146.065 70.6414 147.852 75.1398 147.852H177.473C181.971 147.852 186.285 146.065 189.466 142.885C192.647 139.704 194.434 135.39 194.434 130.891C194.433 126.393 192.646 122.08 189.465 118.899C186.285 115.718 181.971 113.931 177.473 113.93Z" fill="#3175D6"/>
<g style="mix-blend-mode:multiply" opacity="0.25">
<g style="mix-blend-mode:multiply" opacity="0.25">
<path d="M177.473 113.93H172.173L164.367 106.128L159.592 110.903L165.487 116.795H170.797C175.295 116.796 179.609 118.583 182.79 121.764C185.97 124.945 187.758 129.258 187.758 133.756C187.759 136.455 187.116 139.115 185.881 141.515C184.646 143.915 182.856 145.985 180.659 147.553C184.536 146.813 188.034 144.744 190.55 141.703C193.066 138.661 194.443 134.838 194.444 130.891C194.443 128.663 194.004 126.457 193.151 124.399C192.298 122.341 191.047 120.471 189.471 118.896C187.896 117.321 186.025 116.071 183.966 115.219C181.907 114.367 179.701 113.929 177.473 113.93Z" fill="#3175D6"/>
</g>
</g>
<g style="mix-blend-mode:multiply" opacity="0.25">
<g style="mix-blend-mode:multiply" opacity="0.25">
<path d="M181.293 145.942H78.9599C74.4615 145.942 70.1474 144.155 66.9666 140.975C63.7858 137.794 61.9988 133.48 61.9988 128.981C61.9974 126.194 62.6838 123.45 63.9971 120.991C65.3104 118.533 67.21 116.437 69.5275 114.888C66.211 116.051 63.3376 118.216 61.3046 121.083C59.2716 123.949 58.1793 127.377 58.1787 130.891C58.1787 135.39 59.9657 139.704 63.1465 142.885C66.3273 146.065 70.6414 147.852 75.1398 147.852H177.473C180.832 147.858 184.117 146.86 186.905 144.987C185.102 145.621 183.204 145.944 181.293 145.942Z" fill="#3175D6"/>
</g>
</g>
<g style="mix-blend-mode:screen" opacity="0.35">
<path d="M136.837 121.042H76.6708C71.6601 121.042 67.5981 125.104 67.5981 130.115C67.5981 135.125 71.6601 139.187 76.6708 139.187H136.837C141.848 139.187 145.91 135.125 145.91 130.115C145.91 125.104 141.848 121.042 136.837 121.042Z" fill="#3175D6"/>
</g>
<path d="M162.208 130.611C162.208 132.785 163.072 134.87 164.609 136.408C166.146 137.945 168.231 138.808 170.405 138.808C172.579 138.808 174.664 137.945 176.202 136.408C177.739 134.87 178.602 132.785 178.602 130.611" stroke="#BDE0FC" stroke-width="2" stroke-linecap="round" stroke-linejoin="round"/>
<path d="M162.208 130.611C162.23 129.521 162.034 128.437 161.631 127.424C161.229 126.41 160.628 125.487 159.865 124.708C159.101 123.93 158.19 123.311 157.185 122.889C156.18 122.467 155.1 122.249 154.009 122.249C152.919 122.249 151.839 122.467 150.834 122.889C149.829 123.311 148.918 123.93 148.154 124.708C147.391 125.487 146.79 126.41 146.388 127.424C145.985 128.437 145.789 129.521 145.811 130.611" stroke="#BDE0FC" stroke-width="2" stroke-linecap="round" stroke-linejoin="round"/>
<path d="M129.417 130.611C129.417 132.785 130.28 134.87 131.817 136.408C133.355 137.945 135.44 138.808 137.614 138.808C139.788 138.808 141.873 137.945 143.41 136.408C144.947 134.87 145.811 132.785 145.811 130.611" stroke="#BDE0FC" stroke-width="2" stroke-linecap="round" stroke-linejoin="round"/>
<path d="M129.417 130.611C129.438 129.521 129.242 128.437 128.84 127.424C128.437 126.41 127.837 125.487 127.073 124.708C126.31 123.93 125.399 123.311 124.393 122.889C123.388 122.467 122.308 122.249 121.218 122.249C120.128 122.249 119.048 122.467 118.043 122.889C117.037 123.311 116.126 123.93 115.363 124.708C114.599 125.487 113.999 126.41 113.596 127.424C113.194 128.437 112.998 129.521 113.019 130.611" stroke="#BDE0FC" stroke-width="2" stroke-linecap="round" stroke-linejoin="round"/>
<path d="M96.6248 130.611C96.6248 132.785 97.4884 134.87 99.0257 136.408C100.563 137.945 102.648 138.808 104.822 138.808C106.996 138.808 109.081 137.945 110.618 136.408C112.156 134.87 113.019 132.785 113.019 130.611" stroke="#BDE0FC" stroke-width="2" stroke-linecap="round" stroke-linejoin="round"/>
<path d="M96.6247 130.611C96.6247 128.437 95.761 126.352 94.2238 124.815C92.6865 123.278 90.6015 122.414 88.4275 122.414C86.2534 122.414 84.1684 123.278 82.6311 124.815C81.0939 126.352 80.2302 128.437 80.2302 130.611" stroke="#BDE0FC" stroke-width="2" stroke-linecap="round" stroke-linejoin="round"/>
<path d="M219.388 46.2228H193.947V81.8417H219.388V46.2228Z" fill="#3175D6"/>
<path d="M209.778 42.8292H203.558V51.8764H209.778V42.8292Z" fill="#3175D6" stroke="white" stroke-miterlimit="10"/>
<g style="mix-blend-mode:multiply" opacity="0.25">
<path d="M214.613 46.2228V79.9317H193.947V81.8417H219.388V46.2228H214.613Z" fill="#3175D6"/>
</g>
<path d="M197.904 77.3181H216.562" stroke="white" stroke-miterlimit="10"/>
<g style="mix-blend-mode:screen" opacity="0.25">
<path d="M203.529 46.2228H193.947V75.5195H203.529V46.2228Z" fill="#3175D6"/>
</g>
<path d="M206.951 71.6643C211.322 71.6643 214.865 68.1211 214.865 63.7504C214.865 59.3797 211.322 55.8365 206.951 55.8365C202.58 55.8365 199.037 59.3797 199.037 63.7504C199.037 68.1211 202.58 71.6643 206.951 71.6643Z" fill="#BDE0FC"/>
<g style="mix-blend-mode:screen" opacity="0.35">
<path d="M201.899 64.7055C201.899 63.6657 202.104 62.636 202.501 61.6752C202.899 60.7145 203.482 59.8416 204.217 59.1063C204.953 58.3711 205.826 57.7879 206.786 57.3902C207.747 56.9925 208.777 56.788 209.817 56.7884C210.159 56.7892 210.502 56.8126 210.842 56.8584C209.825 56.284 208.695 55.9415 207.531 55.8554C206.367 55.7693 205.198 55.9418 204.108 56.3605C203.019 56.7792 202.035 57.4338 201.228 58.2773C200.422 59.1207 199.811 60.1323 199.441 61.2393C199.071 62.3464 198.951 63.5216 199.088 64.6807C199.226 65.8399 199.618 66.9542 200.237 67.9439C200.856 68.9335 201.686 69.7741 202.668 70.4052C203.65 71.0363 204.76 71.4424 205.917 71.5943C204.697 70.9047 203.682 69.9036 202.977 68.6932C202.271 67.4828 201.899 66.1066 201.899 64.7055Z" fill="#BDE0FC"/>
</g>
<g style="mix-blend-mode:screen" opacity="0.35">
<path d="M205.786 42.8292H203.558V51.8764H205.786V42.8292Z" fill="#3175D6"/>
</g>
<path opacity="0.7" d="M118.373 190.122C183.336 190.122 235.999 184.848 235.999 178.343C235.999 171.838 183.336 166.564 118.373 166.564C53.4101 166.564 0.74707 171.838 0.74707 178.343C0.74707 184.848 53.4101 190.122 118.373 190.122Z" fill="#25315B"/>
<g style="mix-blend-mode:multiply" opacity="0.7">
<path d="M146.705 181.208C182.483 181.208 211.487 178.001 211.487 174.045C211.487 170.09 182.483 166.883 146.705 166.883C110.927 166.883 81.9233 170.09 81.9233 174.045C81.9233 178.001 110.927 181.208 146.705 181.208Z" fill="#D3D6E2"/>
</g>
<path d="M7.77954 106.949L18.2147 117.384L42.8096 92.7927C42.3551 92.3377 41.8155 91.9767 41.2214 91.7304C40.6274 91.4842 39.9907 91.3574 39.3476 91.3574C38.7046 91.3574 38.0678 91.4842 37.4738 91.7304C36.8798 91.9767 36.3401 92.3377 35.8857 92.7927L17.9409 110.737L6.06688 98.8825C5.5436 100.249 5.42688 101.738 5.73077 103.169C6.03466 104.6 6.74619 105.913 7.77954 106.949Z" fill="#6CFFD5"/>
<path d="M16.985 112.647L34.9297 94.7027C35.7643 93.8685 36.8723 93.3643 38.0494 93.283C39.2265 93.2017 40.3934 93.5487 41.3347 94.2602L42.8054 92.7927C42.351 92.3377 41.8113 91.9767 41.2173 91.7304C40.6233 91.4842 39.9865 91.3574 39.3435 91.3574C38.7004 91.3574 38.0637 91.4842 37.4697 91.7304C36.8756 91.9767 36.336 92.3377 35.8816 92.7927L17.9368 110.737L6.06593 98.8825C5.77608 99.6406 5.6095 100.44 5.57251 101.251L16.985 112.647Z" fill="#76E5C0"/>
<g style="mix-blend-mode:screen" opacity="0.25">
<path d="M185.918 6.6119C185.919 5.62995 186.175 4.66511 186.662 3.81227C187.149 2.95943 187.849 2.24798 188.694 1.74788C189.539 1.24778 190.5 0.976268 191.482 0.960048C192.463 0.943827 193.433 1.18346 194.294 1.65537C193.721 1.08275 193.032 0.639874 192.273 0.356734C191.514 0.0735928 190.703 -0.0432077 189.896 0.0142409C189.088 0.0716896 188.301 0.302047 187.59 0.689715C186.879 1.07738 186.26 1.61331 185.774 2.26122C185.288 2.90913 184.947 3.6539 184.774 4.4451C184.6 5.2363 184.599 6.05547 184.77 6.84714C184.941 7.63881 185.28 8.38451 185.764 9.03375C186.249 9.68299 186.867 10.2206 187.577 10.6102C187.05 10.0863 186.632 9.46326 186.347 8.777C186.063 8.09073 185.917 7.35487 185.918 6.6119Z" fill="#3175D6"/>
</g>
<g style="mix-blend-mode:multiply" opacity="0.35">
<path d="M190.299 0.0031929C190.032 0.00503192 189.766 0.02631 189.503 0.0668597C190.851 0.254994 192.087 0.924458 192.981 1.95179C193.875 2.97913 194.367 4.29505 194.367 5.65689C194.367 7.01874 193.875 8.33466 192.981 9.36199C192.087 10.3893 190.851 11.0588 189.503 11.2469C189.766 11.2875 190.032 11.3088 190.299 11.3106C191.798 11.3106 193.236 10.7149 194.296 9.65466C195.357 8.59438 195.952 7.15635 195.952 5.65689C195.952 4.15744 195.357 2.7194 194.296 1.65912C193.236 0.598848 191.798 0.00319295 190.299 0.0031929Z" fill="#3175D6"/>
</g>
<g style="mix-blend-mode:screen" opacity="0.65">
<path d="M208.288 5.65689C208.288 4.29603 208.779 2.98091 209.672 1.95372C210.565 0.926533 211.798 0.256444 213.146 0.0668597C212.883 0.02631 212.617 0.00503192 212.35 0.0031929C211.608 0.00319288 210.873 0.14943 210.187 0.433555C209.501 0.71768 208.877 1.13413 208.352 1.65912C207.827 2.18412 207.411 2.80737 207.127 3.49331C206.843 4.17925 206.697 4.91444 206.697 5.65689C206.697 6.39935 206.843 7.13453 207.127 7.82047C207.411 8.50641 207.827 9.12966 208.352 9.65466C208.877 10.1797 209.501 10.5961 210.187 10.8802C210.873 11.1644 211.608 11.3106 212.35 11.3106C212.617 11.3088 212.883 11.2875 213.146 11.2469C211.799 11.0567 210.565 10.3864 209.673 9.35938C208.78 8.33233 208.289 7.01757 208.288 5.65689Z" fill="#6CFFD5"/>
</g>
<path d="M212.35 0.0031929C212.03 0.00408755 211.71 0.0328479 211.395 0.0891458C212.714 0.30837 213.913 0.988608 214.777 2.00877C215.642 3.02893 216.116 4.32281 216.116 5.66008C216.116 6.99734 215.642 8.29122 214.777 9.31138C213.913 10.3315 212.714 11.0118 211.395 11.231C211.71 11.2857 212.03 11.3145 212.35 11.317C213.849 11.317 215.287 10.7213 216.348 9.66103C217.408 8.60075 218.003 7.16271 218.003 5.66326C218.003 4.1638 217.408 2.72576 216.348 1.66549C215.287 0.605216 213.849 0.00956108 212.35 0.00956104V0.0031929Z" fill="#76E5C0"/>
</svg>
