<svg width="235" height="204" viewBox="0 0 235 204" fill="none" xmlns="http://www.w3.org/2000/svg">
<path d="M117.614 203.479C182.445 203.479 235 198.216 235 191.725C235 185.233 182.445 179.97 117.614 179.97C52.7835 179.97 0.228027 185.233 0.228027 191.725C0.228027 198.216 52.7835 203.479 117.614 203.479Z" fill="#F6F5FA"/>
<g style="mix-blend-mode:multiply">
<path d="M121.109 194.584C156.814 194.584 185.758 191.383 185.758 187.436C185.758 183.488 156.814 180.288 121.109 180.288C85.4037 180.288 56.4591 183.488 56.4591 187.436C56.4591 191.383 85.4037 194.584 121.109 194.584Z" fill="#F6F5FA"/>
</g>
<path d="M188.312 154.682C207.751 154.682 223.509 138.924 223.509 119.485C223.509 100.047 207.751 84.2885 188.312 84.2885C168.874 84.2885 153.116 100.047 153.116 119.485C153.116 138.924 168.874 154.682 188.312 154.682Z" stroke="#6CFFD5" stroke-width="2" stroke-linecap="round" stroke-linejoin="round" stroke-dasharray="7 7"/>
<path d="M61.3707 154.946C85.8326 154.946 105.663 135.115 105.663 110.654C105.663 86.1916 85.8326 66.3614 61.3707 66.3614C36.9088 66.3614 17.0785 86.1916 17.0785 110.654C17.0785 135.115 36.9088 154.946 61.3707 154.946Z" stroke="#3175D6" stroke-width="2" stroke-linecap="round" stroke-linejoin="round" stroke-dasharray="7 7"/>
<path d="M110.145 63.464C123.25 63.464 133.873 52.8405 133.873 39.7358C133.873 26.6311 123.25 16.0077 110.145 16.0077C97.0406 16.0077 86.4171 26.6311 86.4171 39.7358C86.4171 52.8405 97.0406 63.464 110.145 63.464Z" fill="#6CFFD5"/>
<path d="M110.126 100.599C109.57 100.599 109.027 100.426 108.573 100.103C108.124 99.7673 107.798 99.2923 107.647 98.7522C107.496 98.212 107.528 97.637 107.737 97.1168L109.92 91.4842L112.388 96.9485C113.1 98.5369 112.099 100.443 110.371 100.586C110.29 100.595 110.208 100.599 110.126 100.599Z" fill="#BDE0FC"/>
<g style="mix-blend-mode:multiply" opacity="0.45">
<path d="M112.389 96.9485L109.92 91.4842L109.355 92.9646L111.153 96.9485C111.309 97.2871 111.39 97.6554 111.39 98.0282C111.391 98.401 111.311 98.7696 111.156 99.1086C111.001 99.4477 110.774 99.7493 110.492 99.9927C110.21 100.236 109.878 100.416 109.52 100.519C109.721 100.57 109.928 100.597 110.136 100.599C110.218 100.604 110.299 100.604 110.381 100.599C112.099 100.43 113.1 98.5305 112.389 96.9485Z" fill="#BDE0FC"/>
</g>
<g style="mix-blend-mode:screen" opacity="0.35">
<path d="M108.884 98.9403C109.456 98.9403 109.92 98.4766 109.92 97.9047C109.92 97.3327 109.456 96.869 108.884 96.869C108.312 96.869 107.848 97.3327 107.848 97.9047C107.848 98.4766 108.312 98.9403 108.884 98.9403Z" fill="#BDE0FC"/>
</g>
<path d="M114.682 91.4842C114.126 91.4842 113.583 91.3122 113.128 90.9918C112.679 90.6554 112.354 90.1796 112.203 89.6388C112.053 89.098 112.085 88.5226 112.296 88.0023L114.475 82.3697L116.944 87.8339C117.659 89.4224 116.658 91.3285 114.93 91.4715C114.847 91.4805 114.765 91.4847 114.682 91.4842Z" fill="#BDE0FC"/>
<g style="mix-blend-mode:multiply" opacity="0.45">
<path d="M116.944 87.8339L114.475 82.3697L113.903 83.8501L115.708 87.8339C115.864 88.1728 115.945 88.5413 115.945 88.9143C115.945 89.2873 115.865 89.6559 115.71 89.995C115.554 90.3341 115.328 90.6357 115.045 90.879C114.762 91.1223 114.43 91.3016 114.072 91.4048C114.273 91.4554 114.48 91.482 114.688 91.4842C114.771 91.4889 114.853 91.4889 114.936 91.4842C116.661 91.3158 117.658 89.416 116.944 87.8339Z" fill="#BDE0FC"/>
</g>
<g style="mix-blend-mode:screen" opacity="0.35">
<path d="M113.44 89.8258C114.012 89.8258 114.475 89.3621 114.475 88.7902C114.475 88.2182 114.012 87.7545 113.44 87.7545C112.868 87.7545 112.404 88.2182 112.404 88.7902C112.404 89.3621 112.868 89.8258 113.44 89.8258Z" fill="#BDE0FC"/>
</g>
<path d="M117.169 105.154C116.613 105.156 116.07 104.984 115.616 104.662C115.166 104.326 114.84 103.85 114.689 103.31C114.538 102.769 114.57 102.193 114.78 101.672L116.979 96.0399L119.447 101.507C120.159 103.096 119.158 105.002 117.43 105.145C117.335 105.151 117.252 105.154 117.169 105.154Z" fill="#BDE0FC"/>
<g style="mix-blend-mode:multiply" opacity="0.45">
<path d="M119.431 101.507L116.979 96.0399L116.404 97.5235L118.202 101.507C118.358 101.846 118.439 102.214 118.439 102.586C118.44 102.959 118.36 103.327 118.205 103.666C118.05 104.005 117.823 104.306 117.541 104.549C117.258 104.793 116.927 104.972 116.569 105.075C116.77 105.126 116.977 105.152 117.185 105.154C117.268 105.154 117.35 105.154 117.43 105.154C119.142 104.989 120.155 103.089 119.431 101.507Z" fill="#BDE0FC"/>
</g>
<g style="mix-blend-mode:screen" opacity="0.35">
<path d="M115.927 103.499C116.499 103.499 116.963 103.035 116.963 102.463C116.963 101.892 116.499 101.428 115.927 101.428C115.355 101.428 114.892 101.892 114.892 102.463C114.892 103.035 115.355 103.499 115.927 103.499Z" fill="#BDE0FC"/>
</g>
<path d="M109.713 84.441C109.156 84.4414 108.612 84.2694 108.157 83.9485C107.707 83.6121 107.382 83.1364 107.231 82.5956C107.081 82.0548 107.113 81.4794 107.324 80.9591L109.504 75.3265L111.972 80.7907C112.687 82.3792 111.686 84.2853 109.958 84.4314C109.875 84.4378 109.796 84.441 109.713 84.441Z" fill="#BDE0FC"/>
<g style="mix-blend-mode:multiply" opacity="0.45">
<path d="M111.972 80.7907L109.504 75.3265L108.932 76.8069L110.73 80.7907C110.886 81.1296 110.967 81.4981 110.967 81.8711C110.967 82.2441 110.887 82.6127 110.732 82.9518C110.576 83.2909 110.35 83.5924 110.067 83.8357C109.784 84.0791 109.452 84.2584 109.094 84.3615C109.302 84.4136 109.515 84.4403 109.729 84.441C109.812 84.441 109.891 84.441 109.974 84.441C111.686 84.2726 112.687 82.3728 111.972 80.7907Z" fill="#BDE0FC"/>
</g>
<g style="mix-blend-mode:screen" opacity="0.35">
<path d="M108.468 82.7827C109.04 82.7827 109.504 82.319 109.504 81.7471C109.504 81.1751 109.04 80.7114 108.468 80.7114C107.896 80.7114 107.432 81.1751 107.432 81.7471C107.432 82.319 107.896 82.7827 108.468 82.7827Z" fill="#BDE0FC"/>
</g>
<path d="M123.812 112.652C123.298 111.26 117.675 110.164 110.787 110.164C103.9 110.164 98.2924 111.26 97.7809 112.652V150.352C98.2924 151.74 103.919 152.836 110.787 152.836C117.655 152.836 123.282 151.74 123.812 150.352V112.652Z" fill="#3175D6"/>
<g style="mix-blend-mode:screen" opacity="0.75">
<path d="M110.803 115.552C118.011 115.552 123.854 114.346 123.854 112.858C123.854 111.37 118.011 110.164 110.803 110.164C103.595 110.164 97.7522 111.37 97.7522 112.858C97.7522 114.346 103.595 115.552 110.803 115.552Z" fill="#3175D6"/>
</g>
<g style="mix-blend-mode:multiply" opacity="0.35">
<path d="M110.803 152.836C118.011 152.836 123.854 151.63 123.854 150.142C123.854 148.654 118.011 147.448 110.803 147.448C103.595 147.448 97.7522 148.654 97.7522 150.142C97.7522 151.63 103.595 152.836 110.803 152.836Z" fill="#3175D6"/>
</g>
<g style="mix-blend-mode:multiply" opacity="0.25">
<path d="M110.803 115.136C117.553 115.136 123.024 114.116 123.024 112.858C123.024 111.6 117.553 110.58 110.803 110.58C104.053 110.58 98.5815 111.6 98.5815 112.858C98.5815 114.116 104.053 115.136 110.803 115.136Z" fill="#3175D6"/>
</g>
<g style="mix-blend-mode:screen" opacity="0.35">
<path d="M113.484 115.079C115.429 115.013 117.367 114.818 119.285 114.494V111.219C117.366 110.897 115.428 110.702 113.484 110.634V115.079Z" fill="#3175D6"/>
</g>
<g style="mix-blend-mode:screen" opacity="0.25">
<g style="mix-blend-mode:screen" opacity="0.25">
<path d="M103.553 115.098C102.635 114.971 101.803 114.818 101.069 114.65V151.934C101.803 152.102 102.635 152.252 103.553 152.382V115.098Z" fill="#3175D6"/>
</g>
</g>
<g style="mix-blend-mode:multiply" opacity="0.55">
<path d="M115.39 139.62C111.934 139.585 109.618 142.029 104.907 140.059C100.557 138.235 98.1176 139.786 97.7809 140.027V150.352C98.2924 151.74 103.919 152.836 110.787 152.836C117.655 152.836 123.282 151.74 123.812 150.352V141.336C123.333 141.171 118.666 139.652 115.39 139.62Z" fill="#3175D6"/>
</g>
<g style="mix-blend-mode:screen" opacity="0.25">
<g style="mix-blend-mode:screen" opacity="0.25">
<path d="M97.7966 113.062V150.352C98.1143 151.197 100.338 151.94 103.553 152.382V115.098C100.319 114.65 98.108 113.913 97.7966 113.062Z" fill="#3175D6"/>
</g>
</g>
<g style="mix-blend-mode:multiply" opacity="0.35">
<g style="mix-blend-mode:multiply" opacity="0.35">
<path d="M115.981 115.33V152.617C120.321 152.226 123.437 151.369 123.812 150.352V113.062C123.437 114.081 120.321 114.942 115.981 115.33Z" fill="#3175D6"/>
</g>
</g>
<path d="M61.6343 141.501C61.6343 141.501 52.9359 132.854 61.6343 120.305C70.3326 107.756 62.3681 103.833 61.6343 97.5107C60.3159 86.1343 65.5895 82.9733 65.5895 82.9733" stroke="#6CFFD5" stroke-width="2.95" stroke-miterlimit="10"/>
<path d="M74.1356 106.784C70.8221 109.932 65.6755 109.897 65.6755 109.897C65.6755 109.897 65.9011 104.754 69.2146 101.606C72.5281 98.4574 77.6778 98.4924 77.6778 98.4924C77.6778 98.4924 77.4491 103.633 74.1356 106.784Z" fill="#6CFFD5"/>
<g style="mix-blend-mode:multiply">
<path d="M77.0805 101.695C76.5326 103.007 75.7255 104.196 74.7074 105.189C71.3939 108.338 66.2473 108.303 66.2473 108.303C66.3295 107.223 66.5298 106.155 66.8446 105.119C66.1984 106.634 65.8035 108.243 65.6755 109.885C65.6755 109.885 70.8221 109.92 74.1356 106.771C75.7145 105.281 76.5945 103.328 77.0805 101.695Z" fill="#6CFFD5"/>
</g>
<g style="mix-blend-mode:screen" opacity="0.5">
<path d="M68.903 103.458C72.2165 100.31 77.3631 100.344 77.3631 100.344C77.3631 100.344 77.3631 100.491 77.3313 100.742C77.5089 100.003 77.6247 99.2504 77.6776 98.4924C77.6776 98.4924 72.531 98.4574 69.2175 101.606C66.4536 104.23 65.8342 108.239 65.723 109.5C66.1169 107.731 67.0001 105.265 68.903 103.458Z" fill="#6CFFD5"/>
</g>
<path d="M70.9487 84.5904C67.6352 87.7419 62.4887 87.7037 62.4887 87.7037C62.4887 87.7037 62.7143 82.5635 66.0309 79.4152C69.3476 76.2669 74.491 76.2987 74.491 76.2987C74.491 76.2987 74.2654 81.4421 70.9487 84.5904Z" fill="#6CFFD5"/>
<g style="mix-blend-mode:multiply">
<path d="M73.8937 79.5042C73.345 80.8164 72.538 82.0049 71.5206 82.9988C68.2071 86.1471 63.0605 86.1121 63.0605 86.1121C63.141 85.026 63.3413 83.952 63.6578 82.9098C63.0117 84.4297 62.6169 86.0445 62.4887 87.6911C62.4887 87.6911 67.6352 87.7292 70.9487 84.5777C72.5308 83.0909 73.4077 81.1371 73.8937 79.5042Z" fill="#6CFFD5"/>
</g>
<g style="mix-blend-mode:screen" opacity="0.5">
<path d="M65.7166 81.2674C69.0301 78.1191 74.1767 78.154 74.1767 78.154C74.1767 78.154 74.1767 78.297 74.1449 78.548C74.3227 77.8091 74.4385 77.0568 74.4912 76.2987C74.4912 76.2987 69.3447 76.2638 66.0312 79.4152C63.2673 82.0394 62.6509 86.0486 62.5207 87.3098C62.9305 85.5371 63.8137 83.075 65.7166 81.2674Z" fill="#6CFFD5"/>
</g>
<path d="M54.6037 99.509C58.1174 102.438 63.2481 102.066 63.2481 102.066C63.2481 102.066 62.6889 96.9484 59.1753 94.0225C55.6616 91.0966 50.531 91.4587 50.531 91.4587C50.531 91.4587 51.0901 96.5831 54.6037 99.509Z" fill="#6CFFD5"/>
<g style="mix-blend-mode:multiply">
<path d="M51.3348 94.6357C51.9662 95.914 52.849 97.0518 53.9304 97.9809C57.4249 100.91 62.5747 100.538 62.5747 100.538C62.4249 99.4591 62.1554 98.4 61.7709 97.3805C62.5166 98.8555 63.0156 100.443 63.2482 102.079C63.2482 102.079 58.1175 102.451 54.6039 99.5217C52.9296 98.1302 51.9257 96.2241 51.3348 94.6357Z" fill="#6CFFD5"/>
</g>
<g style="mix-blend-mode:screen" opacity="0.5">
<path d="M59.6105 95.8524C56.0969 92.9233 50.963 93.295 50.963 93.295C50.963 93.295 50.9789 93.438 51.0202 93.689C50.7962 92.9624 50.6326 92.2186 50.531 91.4651C50.531 91.4651 55.6648 91.0966 59.1753 94.0225C62.1044 96.4624 62.9876 100.424 63.1909 101.672C62.654 99.9315 61.6247 97.533 59.6105 95.8524Z" fill="#6CFFD5"/>
</g>
<path d="M53.8128 117.436C57.3265 120.365 62.4571 119.994 62.4571 119.994C62.4571 119.994 61.898 114.879 58.3844 111.95C54.8707 109.021 49.7401 109.408 49.7401 109.408C49.7401 109.408 50.2992 114.51 53.8128 117.436Z" fill="#6CFFD5"/>
<g style="mix-blend-mode:multiply">
<path d="M50.5439 112.55C51.1753 113.828 52.0581 114.966 53.1394 115.895C56.6499 118.824 61.7838 118.453 61.7838 118.453C61.634 117.374 61.3645 116.314 60.98 115.295C61.7257 116.77 62.2247 118.357 62.4573 119.994C62.4573 119.994 57.3266 120.365 53.8129 117.436C52.1387 116.041 51.1348 114.151 50.5439 112.55Z" fill="#6CFFD5"/>
</g>
<g style="mix-blend-mode:screen" opacity="0.5">
<path d="M58.8196 113.78C55.306 110.854 50.1721 111.222 50.1721 111.222C50.1721 111.222 50.188 111.365 50.2293 111.616C50.0053 110.89 49.8417 110.146 49.7401 109.392C49.7401 109.392 54.8739 109.021 58.3844 111.934C61.3134 114.374 62.1966 118.335 62.3999 119.584C61.8758 117.859 60.8337 115.46 58.8196 113.78Z" fill="#6CFFD5"/>
</g>
<path d="M66.2059 130.465C62.8892 133.613 57.7427 133.578 57.7427 133.578C57.7427 133.578 57.9714 128.438 61.2849 125.286C64.5984 122.135 69.745 122.173 69.745 122.173C69.745 122.173 69.5194 127.316 66.2059 130.465Z" fill="#6CFFD5"/>
<g style="mix-blend-mode:multiply">
<path d="M69.1477 125.375C68.6006 126.687 67.7946 127.876 66.7777 128.87C63.4611 132.021 58.3145 131.983 58.3145 131.983C58.3953 130.897 58.5956 129.823 58.9118 128.781C58.2654 130.302 57.8706 131.918 57.7427 133.565C57.7427 133.565 62.8892 133.6 66.2059 130.452C67.7848 128.962 68.6616 127.011 69.1477 125.375Z" fill="#6CFFD5"/>
</g>
<g style="mix-blend-mode:screen" opacity="0.5">
<path d="M60.9706 127.142C64.2873 123.99 69.4339 124.025 69.4339 124.025C69.4339 124.025 69.4339 124.171 69.4021 124.422C69.5778 123.683 69.6925 122.931 69.7452 122.173C69.7452 122.173 64.5986 122.138 61.2851 125.286C58.5213 127.914 57.9049 131.923 57.7747 133.184C58.1845 131.411 59.0677 128.946 60.9706 127.142Z" fill="#6CFFD5"/>
</g>
<path d="M172.101 129.108H145.736V155.473H172.101V129.108Z" fill="#14407D"/>
<g style="mix-blend-mode:multiply" opacity="0.45">
<path d="M168.146 133.063H149.691V151.518H168.146V133.063Z" fill="#14407D"/>
</g>
<path d="M149.641 140.208L158.278 148.852L178.646 128.482C177.886 127.726 176.858 127.302 175.786 127.302C174.715 127.302 173.687 127.726 172.927 128.482L158.062 143.347L148.23 133.514C147.792 134.647 147.692 135.882 147.942 137.071C148.193 138.259 148.783 139.349 149.641 140.208Z" fill="#6CFFD5"/>
<path d="M157.262 144.929L172.127 130.064C172.818 129.374 173.736 128.956 174.711 128.889C175.686 128.822 176.652 129.11 177.432 129.699L178.649 128.482C177.889 127.726 176.861 127.302 175.79 127.302C174.718 127.302 173.69 127.726 172.93 128.482L158.066 143.347L148.233 133.514C147.992 134.143 147.853 134.806 147.823 135.478L157.262 144.929Z" fill="#76E5C0"/>
<path d="M20.7828 68.3342C20.7829 62.6542 22.7661 57.1524 26.39 52.7786C30.0138 48.4048 35.051 45.4334 40.632 44.3773C37.1087 43.7114 33.482 43.8308 30.0101 44.727C26.5383 45.6232 23.3068 47.274 20.546 49.5619C17.7851 51.8499 15.5629 54.7186 14.0376 57.9636C12.5123 61.2086 11.7215 64.7502 11.7215 68.3358C11.7215 71.9214 12.5123 75.4629 14.0376 78.708C15.5629 81.953 17.7851 84.8217 20.546 87.1096C23.3068 89.3976 26.5383 91.0484 30.0101 91.9446C33.482 92.8407 37.1087 92.9602 40.632 92.2943C35.0505 91.2381 30.0129 88.2662 26.389 83.8918C22.765 79.5173 20.7822 74.0148 20.7828 68.3342Z" fill="#3175D6"/>
<g style="mix-blend-mode:multiply" opacity="0.45">
<path d="M20.7828 68.3341C20.7829 62.6541 22.7661 57.1523 26.39 52.7785C30.0138 48.4047 35.051 45.4333 40.632 44.3772C39.1383 44.0959 37.6217 43.9545 36.1018 43.9547C35.7396 43.9547 35.3806 43.9547 35.0216 43.9769C36.1754 44.029 37.3241 44.1628 38.459 44.3772C32.8767 45.4322 27.8381 48.4033 24.2131 52.7776C20.5881 57.1519 18.6043 62.6546 18.6043 68.3357C18.6043 74.0168 20.5881 79.5195 24.2131 83.8938C27.8381 88.2681 32.8767 91.2392 38.459 92.2942C37.3222 92.5094 36.1712 92.6421 35.0153 92.6913C35.3743 92.7072 35.7332 92.7167 36.0954 92.7167C37.6153 92.7169 39.132 92.5755 40.6257 92.2942C35.0453 91.2367 30.0092 88.2643 26.3865 83.8899C22.7638 79.5156 20.7819 74.0138 20.7828 68.3341Z" fill="#3175D6"/>
</g>
<g style="mix-blend-mode:screen" opacity="0.25">
<path d="M16.0681 68.3342C16.0699 62.2444 18.35 56.3756 22.4599 51.8817C26.5698 47.3879 32.2123 44.5943 38.2777 44.0501C37.5598 43.9865 36.8344 43.9548 36.1016 43.9548C32.8764 43.918 29.6759 44.5214 26.6856 45.7301C23.6953 46.9389 20.9745 48.7289 18.6808 50.9966C16.3871 53.2642 14.5662 55.9644 13.3234 58.9407C12.0806 61.9171 11.4406 65.1104 11.4406 68.3358C11.4406 71.5612 12.0806 74.7545 13.3234 77.7309C14.5662 80.7072 16.3871 83.4074 18.6808 85.675C20.9745 87.9427 23.6953 89.7327 26.6856 90.9414C29.6759 92.1502 32.8764 92.7536 36.1016 92.7168C36.8344 92.7168 37.5598 92.685 38.2777 92.6215C32.2117 92.0773 26.5688 89.2832 22.4588 84.7887C18.3488 80.2942 16.0691 74.4246 16.0681 68.3342Z" fill="#3175D6"/>
</g>
<path d="M196.496 83.2274C199.07 85.8007 199.737 89.3048 197.989 91.0553C196.242 92.8057 192.732 92.1386 190.158 89.5653C187.585 86.992 188.668 81.7343 188.668 81.7343C188.668 81.7343 193.923 80.6573 196.496 83.2274Z" fill="#14407D"/>
<g style="mix-blend-mode:screen" opacity="0.25">
<path d="M194.851 83.542C196.627 85.3179 197.075 87.7386 195.88 88.9427C194.686 90.1467 192.249 89.6893 190.48 87.9134C188.71 86.1375 189.45 82.5127 189.45 82.5127C189.45 82.5127 193.072 81.7629 194.851 83.542Z" fill="#14407D"/>
</g>
<path d="M204.394 103.274C201.821 100.7 201.154 97.193 202.904 95.4426C204.655 93.6921 208.159 94.3624 210.732 96.9357C213.306 99.509 212.225 104.764 212.225 104.764C212.225 104.764 206.968 105.847 204.394 103.274Z" fill="#14407D"/>
<g style="mix-blend-mode:screen" opacity="0.25">
<path d="M206.043 102.959C204.264 101.183 203.804 98.7625 205.014 97.5584C206.224 96.3544 208.642 96.8119 210.415 98.5877C212.187 100.364 211.447 103.988 211.447 103.988C211.447 103.988 207.819 104.735 206.043 102.959Z" fill="#14407D"/>
</g>
<path d="M190.422 97.1994C192.995 94.6261 196.503 93.9558 198.253 95.7063C200.004 97.4568 199.333 100.964 196.76 103.537C194.187 106.111 188.932 105.027 188.932 105.027C188.932 105.027 187.849 99.7727 190.422 97.1994Z" fill="#14407D"/>
<g style="mix-blend-mode:screen" opacity="0.25">
<path d="M190.737 98.845C192.513 97.0691 194.933 96.6212 196.137 97.8157C197.341 99.0102 196.884 101.447 195.108 103.216C193.332 104.986 189.707 104.246 189.707 104.246C189.707 104.246 188.961 100.624 190.737 98.845Z" fill="#14407D"/>
</g>
<path d="M210.469 89.3016C207.895 91.8749 204.391 92.542 202.641 90.7916C200.89 89.0411 201.557 85.537 204.131 82.9637C206.704 80.3905 211.962 81.4706 211.962 81.4706C211.962 81.4706 213.045 86.7252 210.469 89.3016Z" fill="#14407D"/>
<g style="mix-blend-mode:screen" opacity="0.25">
<path d="M210.154 87.6465C208.378 89.4255 205.957 89.8862 204.753 88.6758C203.549 87.4654 204.003 85.0478 205.782 83.2751C207.561 81.5024 211.183 82.2426 211.183 82.2426C211.183 82.2426 211.933 85.877 210.154 87.6465Z" fill="#14407D"/>
</g>
<path d="M200.308 95.6269C201.765 95.6269 202.945 94.4463 202.945 92.99C202.945 91.5338 201.765 90.3532 200.308 90.3532C198.852 90.3532 197.671 91.5338 197.671 92.99C197.671 94.4463 198.852 95.6269 200.308 95.6269Z" fill="#6CFFD5"/>
<path d="M204.791 83.237C204.791 86.8745 202.783 89.8258 200.309 89.8258C197.834 89.8258 195.829 86.8745 195.829 83.237C195.829 79.5994 200.309 76.6449 200.309 76.6449C200.309 76.6449 204.791 79.5963 204.791 83.237Z" fill="#3175D6"/>
<path d="M204.791 83.237C204.791 86.8745 202.783 89.8258 200.309 89.8258C197.834 89.8258 195.829 86.8745 195.829 83.237C195.829 79.5994 200.309 76.6449 200.309 76.6449C200.309 76.6449 204.791 79.5963 204.791 83.237Z" fill="#3175D6"/>
<g style="mix-blend-mode:multiply" opacity="0.25">
<path d="M200.309 76.6449C200.309 76.6449 199.991 76.8578 199.518 77.2358C200.804 78.2747 203.209 80.5684 203.209 83.237C203.209 86.4774 201.621 89.1714 199.518 89.721C199.775 89.7909 200.041 89.8262 200.309 89.8258C202.783 89.8258 204.791 86.8745 204.791 83.237C204.791 79.5994 200.309 76.6449 200.309 76.6449Z" fill="#3175D6"/>
</g>
<g style="mix-blend-mode:screen" opacity="0.35">
<path d="M197.408 83.237C197.408 80.5684 199.813 78.2747 201.1 77.2358C200.633 76.8578 200.309 76.6449 200.309 76.6449C200.309 76.6449 195.829 79.5963 195.829 83.237C195.829 86.8777 197.834 89.8258 200.309 89.8258C200.576 89.8262 200.842 89.7909 201.1 89.721C199.003 89.1714 197.408 86.4774 197.408 83.237Z" fill="#3175D6"/>
</g>
<path d="M195.829 103.01C195.829 99.3691 197.834 96.4178 200.309 96.4178C202.783 96.4178 204.791 99.3691 204.791 103.01C204.791 106.651 200.309 109.599 200.309 109.599C200.309 109.599 195.829 106.647 195.829 103.01Z" fill="#3175D6"/>
<g style="mix-blend-mode:multiply" opacity="0.25">
<path d="M200.309 109.599C200.309 109.599 200.626 109.386 201.1 109.008C199.829 107.972 197.408 105.675 197.408 103.01C197.408 99.7663 198.997 97.0723 201.1 96.5227C200.842 96.4542 200.576 96.419 200.309 96.4178C197.834 96.4178 195.829 99.3691 195.829 103.01C195.829 106.651 200.309 109.599 200.309 109.599Z" fill="#3175D6"/>
</g>
<g style="mix-blend-mode:screen" opacity="0.35">
<path d="M203.209 103.01C203.209 105.675 200.804 107.972 199.518 109.008C199.988 109.386 200.309 109.599 200.309 109.599C200.309 109.599 204.791 106.647 204.791 103.01C204.791 99.3723 202.783 96.4178 200.309 96.4178C200.042 96.419 199.776 96.4542 199.518 96.5227C201.618 97.0723 203.209 99.7663 203.209 103.01Z" fill="#3175D6"/>
</g>
<path d="M190.422 88.6408C194.063 88.6408 197.014 90.6454 197.014 93.1234C197.014 95.6014 194.063 97.6028 190.422 97.6028C186.782 97.6028 183.833 93.1234 183.833 93.1234C183.833 93.1234 186.782 88.6408 190.422 88.6408Z" fill="#3175D6"/>
<g style="mix-blend-mode:multiply" opacity="0.25">
<path d="M183.833 93.1234C183.833 93.1234 184.046 93.4411 184.424 93.9145C185.46 92.6278 187.757 90.2229 190.422 90.2229C193.666 90.2229 196.36 91.8114 196.909 93.9145C196.978 93.6563 197.013 93.3905 197.014 93.1234C197.014 90.6454 194.063 88.6408 190.422 88.6408C186.782 88.6408 183.833 93.1234 183.833 93.1234Z" fill="#3175D6"/>
</g>
<g style="mix-blend-mode:screen" opacity="0.35">
<path d="M190.422 96.0207C187.757 96.0207 185.46 93.619 184.424 92.3324C184.046 92.7994 183.833 93.1234 183.833 93.1234C183.833 93.1234 186.782 97.6028 190.422 97.6028C194.063 97.6028 197.014 95.5982 197.014 93.1234C197.013 92.8563 196.978 92.5905 196.909 92.3324C196.36 94.4291 193.666 96.0207 190.422 96.0207Z" fill="#3175D6"/>
</g>
<path d="M210.195 97.6028C206.557 97.6028 203.606 95.5982 203.606 93.1234C203.606 90.6486 206.557 88.6408 210.195 88.6408C213.832 88.6408 216.787 93.1234 216.787 93.1234C216.787 93.1234 213.835 97.6028 210.195 97.6028Z" fill="#3175D6"/>
<g style="mix-blend-mode:multiply" opacity="0.25">
<path d="M216.787 93.1234C216.787 93.1234 216.574 92.8057 216.196 92.3324C215.157 93.619 212.863 96.0207 210.195 96.0207C206.954 96.0207 204.26 94.4323 203.711 92.3324C203.641 92.5902 203.606 92.8562 203.606 93.1234C203.606 95.5982 206.557 97.6028 210.195 97.6028C213.832 97.6028 216.787 93.1234 216.787 93.1234Z" fill="#3175D6"/>
</g>
<g style="mix-blend-mode:screen" opacity="0.35">
<path d="M210.195 90.2229C212.863 90.2229 215.157 92.6278 216.196 93.9145C216.574 93.4443 216.787 93.1234 216.787 93.1234C216.787 93.1234 213.835 88.6408 210.195 88.6408C206.554 88.6408 203.606 90.6454 203.606 93.1234C203.606 93.3906 203.641 93.6566 203.711 93.9145C204.26 91.8146 206.954 90.2229 210.195 90.2229Z" fill="#3175D6"/>
</g>
<g style="mix-blend-mode:screen">
<path d="M200.308 94.5721C201.182 94.5721 201.891 93.8638 201.891 92.99C201.891 92.1163 201.182 91.4079 200.308 91.4079C199.435 91.4079 198.726 92.1163 198.726 92.99C198.726 93.8638 199.435 94.5721 200.308 94.5721Z" fill="#6CFFD5"/>
</g>
<path opacity="0.65" d="M91.4938 25.0618C88.5318 28.8295 86.7796 33.4055 86.4677 38.188C86.1558 42.9704 87.2989 47.7352 89.7465 51.8557C92.5812 51.0573 95.0986 49.3997 96.952 47.111C98.8054 44.8224 99.9035 42.0154 100.095 39.0766C100.287 36.1379 99.5625 33.2121 98.0221 30.7021C96.4816 28.1921 94.2008 26.2216 91.4938 25.0618Z" fill="#76E5C0"/>
<path opacity="0.65" d="M117.167 54.4846C117.757 56.7089 118.872 58.7569 120.41 60.4449C122.727 59.725 124.832 58.4384 126.547 56.6938C128.263 54.9492 129.539 52.7977 130.268 50.4209C130.996 48.044 131.157 45.5115 130.735 43.037C130.313 40.5625 129.322 38.2186 127.844 36.2031C127.657 36.5717 127.484 36.9499 127.322 37.3249C127.085 37.3729 126.849 37.4294 126.612 37.4926C123.151 38.4162 120.211 40.7252 118.44 43.9119C116.669 47.0985 116.211 50.9016 117.167 54.4846Z" fill="#76E5C0"/>
<g style="mix-blend-mode:screen" opacity="0.65">
<path d="M110.145 23.127C115.821 23.1279 121.309 25.1628 125.613 28.8627C129.918 32.5626 132.753 37.6825 133.607 43.2939C134.117 39.9163 133.893 36.4682 132.949 33.1853C132.004 29.9024 130.362 26.8622 128.135 24.2723C125.907 21.6825 123.147 19.6042 120.042 18.1794C116.937 16.7547 113.561 16.0171 110.145 16.0171C106.729 16.0171 103.354 16.7547 100.249 18.1794C97.1441 19.6042 94.3836 21.6825 92.156 24.2723C89.9284 26.8622 88.2863 29.9024 87.3419 33.1853C86.3975 36.4682 86.1731 39.9163 86.684 43.2939C87.5365 37.6822 90.3722 32.5619 94.6767 28.8619C98.9811 25.1619 104.469 23.1272 110.145 23.127Z" fill="#6CFFD5"/>
</g>
<path d="M81.1148 51.6397C89.0015 51.6397 95.3949 45.2463 95.3949 37.3596C95.3949 29.4729 89.0015 23.0795 81.1148 23.0795C73.2281 23.0795 66.8347 29.4729 66.8347 37.3596C66.8347 45.2463 73.2281 51.6397 81.1148 51.6397Z" fill="#14407D"/>
<g style="mix-blend-mode:multiply" opacity="0.25">
<path d="M81.1149 23.0793C79.9148 23.0785 78.7193 23.229 77.5568 23.5273C80.6169 24.3263 83.3255 26.1176 85.2588 28.6205C87.1921 31.1234 88.2408 34.1968 88.2408 37.3594C88.2408 40.5221 87.1921 43.5954 85.2588 46.0984C83.3255 48.6013 80.6169 50.3925 77.5568 51.1916C79.5269 51.715 81.5862 51.811 83.5964 51.4732C85.6066 51.1355 87.5214 50.3717 89.2122 49.2332C90.9031 48.0946 92.3309 46.6077 93.3999 44.8721C94.4689 43.1364 95.1543 41.1923 95.4103 39.17C95.6663 37.1477 95.4868 35.094 94.8839 33.1468C94.281 31.1996 93.2687 29.4038 91.9149 27.8799C90.561 26.356 88.8969 25.1393 87.0342 24.3113C85.1715 23.4833 83.1533 23.0633 81.1149 23.0793Z" fill="#14407D"/>
</g>
<g style="mix-blend-mode:screen" opacity="0.55">
<path d="M70.2787 37.6232C70.2786 33.9433 71.6993 30.4055 74.2445 27.7478C76.7898 25.0901 80.2629 23.5178 83.9393 23.359C81.9723 22.9379 79.9385 22.9368 77.971 23.3556C76.0034 23.7744 74.1464 24.6037 72.5213 25.7893C70.8962 26.9749 69.5397 28.4902 68.5403 30.236C67.5409 31.9818 66.9212 33.9189 66.7217 35.9206C66.5222 37.9223 66.7474 39.9435 67.3826 41.8522C68.0177 43.761 69.0486 45.5141 70.4077 46.9972C71.7668 48.4802 73.4236 49.6597 75.2698 50.4586C77.116 51.2575 79.11 51.6578 81.1215 51.6332C81.3279 51.6332 81.5313 51.6332 81.7346 51.6332C78.502 50.978 75.5954 49.2251 73.5075 46.6717C71.4197 44.1183 70.279 40.9215 70.2787 37.6232Z" fill="#14407D"/>
</g>
<path d="M81.115 27.5303V37.3596L92.2055 41.1051" stroke="white" stroke-width="2.95" stroke-miterlimit="10"/>
<path d="M197.934 27.9775C194.254 27.9708 190.652 29.0397 187.571 31.0527C185.193 27.811 182.102 25.159 178.537 23.3017C174.971 21.4443 171.027 20.4312 167.007 20.3407C162.988 20.2501 159.002 21.0845 155.356 22.7793C151.711 24.4742 148.504 26.9842 145.982 30.1155C145.633 30.0965 145.283 30.0869 144.931 30.0869C142.095 30.0902 139.294 30.7116 136.723 31.9078C134.152 33.1041 131.873 34.8464 130.044 37.0136C128.215 39.1807 126.88 41.7205 126.133 44.4561C125.386 47.1916 125.244 50.0572 125.718 52.8531C126.191 55.6491 127.268 58.3082 128.874 60.6453C130.48 62.9824 132.576 64.9413 135.017 66.3856C137.457 67.8299 140.183 68.7247 143.005 69.0079C145.826 69.2911 148.676 68.9558 151.354 68.0253C156.879 71.9084 163.687 73.5121 170.364 72.5026C177.04 71.4931 183.07 67.9482 187.199 62.6056C189.651 64.2896 192.464 65.374 195.412 65.7712C198.359 66.1685 201.359 65.8674 204.169 64.8924C206.979 63.9174 209.521 62.2957 211.589 60.158C213.657 58.0204 215.194 55.4267 216.076 52.586C216.957 49.7453 217.159 46.7372 216.665 43.8042C216.17 40.8712 214.994 38.0955 213.229 35.7008C211.465 33.3061 209.163 31.3595 206.508 30.018C203.854 28.6764 200.921 27.9775 197.947 27.9775H197.934Z" fill="#BDE0FC"/>
<g style="mix-blend-mode:screen" opacity="0.5">
<g style="mix-blend-mode:screen" opacity="0.5">
<path d="M129.117 53.564C129.117 48.3898 131.172 43.4276 134.831 39.7689C138.489 36.1102 143.452 34.0548 148.626 34.0548C148.982 34.0548 149.331 34.0548 149.681 34.0834C151.893 31.3305 154.638 29.0529 157.753 27.3871C160.867 25.7214 164.285 24.7019 167.803 24.3898C171.321 24.0777 174.865 24.4794 178.224 25.5708C181.583 26.6622 184.687 28.4209 187.349 30.7413C184.944 27.5607 181.846 24.9701 178.29 23.1664C174.734 21.3627 170.814 20.3934 166.827 20.3321C162.84 20.2709 158.892 21.1193 155.282 22.8129C151.673 24.5065 148.497 27.0007 145.995 30.1059C145.646 30.0868 145.297 30.0773 144.944 30.0773C140.911 30.0762 136.977 31.3253 133.683 33.6527C130.389 35.98 127.897 39.2711 126.551 43.0729C125.205 46.8747 125.071 51.0003 126.166 54.8817C127.262 58.7632 129.533 62.2096 132.668 64.7467C130.359 61.4748 129.119 57.5687 129.117 53.564Z" fill="#BDE0FC"/>
</g>
<g style="mix-blend-mode:screen" opacity="0.5">
<path d="M191.273 35.0077C194.623 32.8249 198.579 31.7574 202.573 31.9576C206.567 32.1579 210.395 33.6158 213.511 36.1228C210.704 32.0844 206.439 29.2938 201.614 28.3395C196.79 27.3853 191.784 28.3421 187.651 31.008C188.992 32.2132 190.206 33.5535 191.273 35.0077Z" fill="#BDE0FC"/>
</g>
</g>
<g style="mix-blend-mode:multiply" opacity="0.45">
<g style="mix-blend-mode:multiply" opacity="0.45">
<path d="M207.69 30.6905C210.943 34.0829 212.821 38.5615 212.962 43.2593C213.102 47.9571 211.494 52.5398 208.449 56.1201C205.405 59.7005 201.14 62.0238 196.481 62.6403C191.822 63.2568 187.099 62.1226 183.228 59.4572C179.099 64.7999 173.069 68.3448 166.393 69.3543C159.716 70.3638 152.908 68.7601 147.383 64.877C144.678 65.8167 141.799 66.1492 138.95 65.8511C136.102 65.553 133.354 64.6314 130.902 63.152C133.489 65.8342 136.79 67.7188 140.415 68.5825C144.04 69.4462 147.836 69.2528 151.355 68.0253C156.879 71.9084 163.687 73.512 170.364 72.5026C177.04 71.4931 183.07 67.9482 187.199 62.6055C189.293 64.0842 191.665 65.1235 194.171 65.6607C196.677 66.1979 199.266 66.222 201.782 65.7314C204.298 65.2409 206.689 64.2459 208.809 62.8064C210.93 61.3669 212.738 59.5128 214.122 57.3559C215.507 55.1989 216.441 52.7839 216.867 50.2563C217.293 47.7287 217.203 45.141 216.602 42.6493C216.001 40.1575 214.902 37.8133 213.37 35.758C211.838 33.7027 209.906 31.9789 207.69 30.6905Z" fill="#BDE0FC"/>
</g>
</g>
<g style="mix-blend-mode:screen" opacity="0.65">
<path d="M165.111 52.4966C171.153 52.4966 176.052 47.5981 176.052 41.5554C176.052 35.5127 171.153 30.6142 165.111 30.6142C159.068 30.6142 154.169 35.5127 154.169 41.5554C154.169 47.5981 159.068 52.4966 165.111 52.4966Z" fill="#BDE0FC"/>
</g>
<g style="mix-blend-mode:screen" opacity="0.65">
<path d="M141.78 56.4518C144.838 56.4518 147.317 53.9727 147.317 50.9145C147.317 47.8563 144.838 45.3772 141.78 45.3772C138.722 45.3772 136.243 47.8563 136.243 50.9145C136.243 53.9727 138.722 56.4518 141.78 56.4518Z" fill="#BDE0FC"/>
</g>
<path d="M189.566 11.2843C192.682 11.2843 195.208 8.75823 195.208 5.64215C195.208 2.52608 192.682 0 189.566 0C186.45 0 183.924 2.52608 183.924 5.64215C183.924 8.75823 186.45 11.2843 189.566 11.2843Z" fill="#6CFFD5"/>
<g style="mix-blend-mode:screen" opacity="0.65">
<path d="M185.512 5.64208C185.515 4.28547 186.007 2.97527 186.897 1.95178C187.787 0.928297 189.017 0.26013 190.36 0.0698234C190.097 0.0293565 189.832 0.00812189 189.566 0.00628662C188.07 0.00628662 186.635 0.600726 185.576 1.65883C184.518 2.71694 183.924 4.15205 183.924 5.64844C183.924 7.14483 184.518 8.57993 185.576 9.63804C186.635 10.6962 188.07 11.2906 189.566 11.2906C189.832 11.2888 190.097 11.2675 190.36 11.2271C189.015 11.0371 187.783 10.3672 186.892 9.34097C186.001 8.31469 185.511 7.00107 185.512 5.64208Z" fill="#6CFFD5"/>
</g>
<path d="M189.566 0C189.246 0.0026247 188.927 0.0313132 188.613 0.0857773C189.929 0.304554 191.125 0.983403 191.988 2.00148C192.851 3.01955 193.324 4.31079 193.324 5.64533C193.324 6.97987 192.851 8.2711 191.988 9.28918C191.125 10.3073 189.929 10.9861 188.613 11.2049C188.927 11.2593 189.246 11.288 189.566 11.2907C191.062 11.2907 192.497 10.6962 193.555 9.63811C194.613 8.58 195.208 7.1449 195.208 5.6485C195.208 4.15211 194.613 2.71701 193.555 1.6589C192.497 0.600794 191.062 0.00635513 189.566 0.00635513V0Z" fill="#76E5C0"/>
<path d="M139.465 96.8023C142.581 96.8023 145.107 94.2762 145.107 91.1601C145.107 88.0441 142.581 85.518 139.465 85.518C136.349 85.518 133.823 88.0441 133.823 91.1601C133.823 94.2762 136.349 96.8023 139.465 96.8023Z" fill="#3175D6"/>
<g style="mix-blend-mode:screen" opacity="0.25">
<path d="M135.087 92.1132C135.086 91.1328 135.341 90.1692 135.827 89.3175C136.312 88.4657 137.012 87.7553 137.855 87.2562C138.699 86.7571 139.659 86.4867 140.639 86.4716C141.619 86.4565 142.587 86.6972 143.445 87.17C142.874 86.5979 142.187 86.1553 141.429 85.8722C140.672 85.589 139.863 85.4719 139.056 85.5288C138.25 85.5856 137.465 85.8151 136.755 86.2018C136.045 86.5884 135.426 87.1231 134.941 87.7696C134.456 88.4162 134.115 89.1595 133.942 89.9492C133.769 90.7389 133.767 91.5566 133.938 92.3469C134.108 93.1371 134.447 93.8815 134.93 94.5296C135.413 95.1778 136.03 95.7145 136.739 96.1034C136.214 95.5799 135.798 94.9579 135.515 94.2731C135.231 93.5883 135.086 92.8543 135.087 92.1132Z" fill="#3175D6"/>
</g>
<g style="mix-blend-mode:multiply" opacity="0.35">
<path d="M139.465 85.518C139.199 85.5196 138.934 85.5408 138.671 85.5815C140.017 85.7693 141.249 86.4374 142.142 87.4626C143.034 88.4878 143.525 89.8011 143.525 91.1601C143.525 92.5192 143.034 93.8324 142.142 94.8577C141.249 95.8829 140.017 96.551 138.671 96.7387C138.934 96.7794 139.199 96.8007 139.465 96.8023C140.961 96.8023 142.396 96.2078 143.455 95.1497C144.513 94.0916 145.107 92.6565 145.107 91.1601C145.107 89.6637 144.513 88.2286 143.455 87.1705C142.396 86.1124 140.961 85.518 139.465 85.518Z" fill="#3175D6"/>
</g>
</svg>
